<svg width="542" height="377" viewBox="0 0 542 377" fill="none" xmlns="http://www.w3.org/2000/svg">
<g clip-path="url(#clip0_1_29)">
<path d="M107.99 377C167.631 377 215.98 373.329 215.98 368.8C215.98 364.272 167.631 360.601 107.99 360.601C48.3487 360.601 0 364.272 0 368.8C0 373.329 48.3487 377 107.99 377Z" fill="#E6E6E6"/>
<path d="M82.5455 83.6497C101.339 75.6582 124.747 80.7215 147.607 84.2357C147.819 79.98 150.398 74.8007 147.697 71.8318C144.415 68.2247 144.717 64.4348 146.692 60.623C151.742 50.8757 144.507 40.504 137.202 31.8801C135.556 29.9407 133.475 28.4168 131.129 27.4324C128.783 26.4479 126.238 26.0306 123.7 26.2143L110.169 27.1805C106.876 27.4156 103.734 28.6505 101.162 30.7198C98.5908 32.7892 96.7128 35.5943 95.7795 38.7599C92.5485 43.1529 90.8192 47.5339 91.908 51.892C87.0685 55.1984 86.2554 59.1895 88.4301 63.6888C90.2742 66.5217 90.2545 69.2793 88.3462 71.9606C85.8401 75.379 83.9206 79.1907 82.6664 83.2393L82.5455 83.6497Z" fill="#2F2E41"/>
<path d="M529.157 325.91H146.122C142.716 325.91 139.449 324.558 137.04 322.15C134.632 319.742 133.279 316.476 133.279 313.07C272.129 296.938 408.369 296.938 542 313.07C542 316.476 540.647 319.742 538.238 322.15C535.83 324.558 532.563 325.91 529.157 325.91Z" fill="#2F2E41"/>
<path d="M542 313.826L133.279 313.07L180.648 233.387L180.875 233.009V57.395C180.875 55.2634 181.294 53.1527 182.11 51.1833C182.926 49.214 184.122 47.4246 185.63 45.9173C187.137 44.4101 188.927 43.2145 190.897 42.3988C192.867 41.5832 194.978 41.1635 197.11 41.1637H475.902C478.034 41.1635 480.145 41.5832 482.115 42.3988C484.085 43.2145 485.875 44.4101 487.383 45.9173C488.89 47.4246 490.086 49.214 490.902 51.1833C491.718 53.1527 492.138 55.2634 492.137 57.395V234.217L542 313.826Z" fill="#3F3D56"/>
<path d="M196.74 52.4931C195.338 52.4947 193.994 53.0522 193.002 54.0434C192.011 55.0346 191.453 56.3784 191.452 57.7802V217.903C191.453 219.305 192.011 220.649 193.002 221.64C193.994 222.631 195.338 223.188 196.74 223.19H478.539C479.941 223.188 481.285 222.631 482.276 221.64C483.268 220.649 483.825 219.305 483.827 217.903V57.7802C483.825 56.3785 483.268 55.0346 482.276 54.0435C481.285 53.0523 479.941 52.4947 478.539 52.4931H196.74Z" fill="white"/>
<path d="M197.921 244.338C197.488 244.339 197.064 244.464 196.699 244.697C196.334 244.931 196.043 245.264 195.862 245.657L181.266 277.38C181.107 277.725 181.037 278.105 181.064 278.484C181.09 278.863 181.211 279.229 181.416 279.549C181.621 279.869 181.903 280.132 182.237 280.315C182.57 280.497 182.944 280.593 183.325 280.593H490.27C490.656 280.593 491.036 280.494 491.374 280.306C491.711 280.118 491.995 279.846 492.198 279.518C492.401 279.189 492.517 278.814 492.534 278.428C492.551 278.043 492.47 277.659 492.297 277.313L476.432 245.591C476.244 245.214 475.955 244.897 475.597 244.675C475.239 244.454 474.826 244.337 474.405 244.338H197.921Z" fill="#2F2E41"/>
<path d="M336.506 49.8496C338.384 49.8496 339.906 48.3279 339.906 46.4507C339.906 44.5736 338.384 43.0519 336.506 43.0519C334.628 43.0519 333.106 44.5736 333.106 46.4507C333.106 48.3279 334.628 49.8496 336.506 49.8496Z" fill="white"/>
<path d="M306.336 286.635C305.838 286.636 305.353 286.8 304.958 287.103C304.563 287.406 304.278 287.831 304.148 288.312L300.486 301.907C300.396 302.243 300.384 302.595 300.451 302.936C300.519 303.277 300.664 303.598 300.876 303.874C301.087 304.151 301.36 304.374 301.671 304.528C301.983 304.682 302.327 304.762 302.675 304.762H372.304C372.665 304.762 373.021 304.676 373.342 304.51C373.663 304.345 373.94 304.105 374.15 303.81C374.359 303.516 374.495 303.176 374.547 302.818C374.598 302.461 374.563 302.096 374.445 301.755L369.738 288.16C369.583 287.715 369.294 287.329 368.91 287.055C368.526 286.782 368.067 286.635 367.596 286.635H306.336Z" fill="#2F2E41"/>
<path d="M492.137 230.365V233.386H180.648L180.882 233.009V230.365H492.137Z" fill="#2F2E41"/>
<path d="M483.449 105.742C512.657 105.742 536.334 82.0705 536.334 52.8708C536.334 23.671 512.657 0 483.449 0C454.242 0 430.565 23.671 430.565 52.8708C430.565 82.0705 454.242 105.742 483.449 105.742Z" fill="#4F7F96"/>
<path d="M505.359 75.9073H461.54C460.739 75.9065 459.971 75.588 459.404 75.0216C458.838 74.4552 458.519 73.6872 458.518 72.8861V46.4507C458.519 45.6497 458.838 44.8818 459.404 44.3154C459.971 43.749 460.739 43.4304 461.54 43.4296H505.359C506.16 43.4304 506.928 43.749 507.495 44.3154C508.061 44.8818 508.38 45.6497 508.381 46.4507V72.8861C508.38 73.6871 508.061 74.4552 507.495 75.0216C506.928 75.588 506.16 75.9065 505.359 75.9073ZM461.54 46.4508V72.8861H505.361L505.359 46.4507L461.54 46.4508Z" fill="white"/>
<path d="M497.048 46.4508H469.85V34.366C469.85 25.613 475.57 19.2601 483.449 19.2601C491.329 19.2601 497.048 25.613 497.048 34.366L497.048 46.4508ZM472.872 43.4296H494.026V34.366C494.026 27.2508 489.677 22.2813 483.449 22.2813C477.222 22.2813 472.872 27.2508 472.872 34.366L472.872 43.4296Z" fill="white"/>
<path d="M483.449 61.9343C485.118 61.9343 486.471 60.5817 486.471 58.9131C486.471 57.2446 485.118 55.8919 483.449 55.8919C481.78 55.8919 480.427 57.2446 480.427 58.9131C480.427 60.5817 481.78 61.9343 483.449 61.9343Z" fill="white"/>
<path d="M446.531 168.878H228.747C227.678 168.877 226.653 168.452 225.897 167.696C225.141 166.94 224.716 165.915 224.714 164.846V110.837C224.716 109.768 225.141 108.743 225.897 107.987C226.653 107.232 227.678 106.806 228.747 106.805H446.531C447.601 106.806 448.626 107.232 449.382 107.987C450.138 108.743 450.563 109.768 450.564 110.837V164.846C450.563 165.915 450.138 166.94 449.382 167.696C448.626 168.452 447.601 168.877 446.531 168.878ZM228.747 108.418C228.106 108.419 227.491 108.674 227.037 109.127C226.583 109.581 226.328 110.196 226.327 110.837V164.846C226.328 165.487 226.583 166.102 227.037 166.556C227.491 167.009 228.106 167.265 228.747 167.265H446.531C447.173 167.265 447.788 167.009 448.242 166.556C448.695 166.102 448.951 165.487 448.951 164.846V110.837C448.951 110.196 448.695 109.581 448.242 109.127C447.788 108.674 447.173 108.419 446.531 108.418L228.747 108.418Z" fill="#E6E6E6"/>
<path d="M262.587 152.193C271.66 152.193 279.015 144.84 279.015 135.769C279.015 126.698 271.66 119.345 262.587 119.345C253.513 119.345 246.158 126.698 246.158 135.769C246.158 144.84 253.513 152.193 262.587 152.193Z" fill="#E6E6E6"/>
<path d="M300.528 124.82C300.168 124.819 299.812 124.89 299.479 125.027C299.147 125.164 298.844 125.366 298.59 125.62C298.335 125.874 298.133 126.176 297.995 126.509C297.857 126.841 297.786 127.197 297.786 127.557C297.786 127.917 297.857 128.273 297.995 128.606C298.133 128.938 298.335 129.24 298.59 129.494C298.844 129.749 299.147 129.95 299.479 130.087C299.812 130.225 300.168 130.295 300.528 130.295H429.609C430.335 130.295 431.032 130.006 431.545 129.493C432.059 128.979 432.347 128.283 432.347 127.557C432.347 126.831 432.059 126.135 431.545 125.622C431.032 125.108 430.335 124.82 429.609 124.82H300.528Z" fill="#E6E6E6"/>
<path d="M300.528 141.244C299.802 141.244 299.106 141.532 298.592 142.046C298.079 142.559 297.79 143.255 297.79 143.981C297.79 144.707 298.079 145.404 298.592 145.917C299.106 146.43 299.802 146.719 300.528 146.719H356.072C356.798 146.719 357.495 146.43 358.008 145.917C358.522 145.404 358.81 144.707 358.81 143.981C358.81 143.255 358.522 142.559 358.008 142.046C357.495 141.532 356.798 141.244 356.072 141.244H300.528Z" fill="#E6E6E6"/>
<path d="M180.112 142.351L139.853 163.749L139.343 145.918C152.484 143.725 164.985 139.906 176.545 133.69L180.755 123.29C181.214 122.157 181.96 121.163 182.919 120.405C183.879 119.646 185.019 119.151 186.228 118.966C187.436 118.782 188.673 118.915 189.814 119.352C190.956 119.789 191.965 120.516 192.741 121.461C193.877 122.843 194.445 124.605 194.329 126.39C194.214 128.175 193.424 129.849 192.12 131.074L180.112 142.351Z" fill="#FFB8B8"/>
<path d="M81.743 265.896C81.4493 264.819 81.387 263.692 81.5601 262.589C81.7331 261.487 82.1377 260.433 82.7473 259.498L91.591 245.929C93.6828 242.72 96.8924 240.402 100.597 239.424C104.302 238.447 108.238 238.881 111.641 240.641C107.924 246.966 108.442 252.514 112.925 257.336C105.966 260.732 99.5353 265.115 93.8308 270.35C92.7894 271.06 91.5934 271.51 90.3424 271.664C89.0915 271.819 87.8219 271.672 86.6392 271.236C85.4566 270.8 84.3952 270.088 83.5436 269.159C82.6919 268.23 82.0746 267.111 81.743 265.896Z" fill="#2F2E41"/>
<path d="M181.946 248.154C180.607 250.384 178.718 252.233 176.46 253.522C174.201 254.812 171.649 255.5 169.048 255.52L110.296 255.965L107.748 241.19L133.738 233.548L111.825 216.735L135.776 188.714L179.28 229.25C181.822 231.619 183.474 234.79 183.96 238.23C184.445 241.671 183.734 245.175 181.946 248.154Z" fill="#2F2E41"/>
<path d="M101.123 349.199H87.3633C75.0094 264.539 62.4342 179.643 99.594 147.956L143.42 155.088L137.815 192.28L113.353 220.301L101.123 349.199Z" fill="#2F2E41"/>
<path d="M113.218 368.377C112.141 368.671 111.014 368.733 109.911 368.56C108.808 368.387 107.754 367.983 106.818 367.373L91.8786 365.366C88.6682 363.275 86.3493 360.066 85.3717 356.362C84.394 352.658 84.8274 348.724 86.5877 345.321C92.9146 349.037 98.4646 348.518 103.288 344.037C106.695 350.916 112.31 350.496 117.672 356.292C118.383 357.333 118.833 358.529 118.988 359.779C119.142 361.03 118.995 362.299 118.559 363.482C118.123 364.664 117.411 365.725 116.482 366.577C115.553 367.428 114.434 368.045 113.218 368.377Z" fill="#2F2E41"/>
<path d="M133.738 91.4037L108.257 85.29C112.489 76.6299 112.838 66.9937 110.805 56.7593L128.132 56.2498C128.675 68.9766 130.317 80.8666 133.738 91.4037Z" fill="#FFB8B8"/>
<path d="M140.741 170.428C122.192 183.065 109.086 170.861 99.0843 152.031C100.474 140.51 98.2238 126.721 94.0561 111.739C92.2026 105.131 92.8946 98.0687 95.9955 91.9458C99.0963 85.8229 104.381 81.0847 110.805 78.6667L132.718 87.8374C151.325 103 154.988 119.424 148.007 136.747L140.741 170.428Z" fill="#4F7F96"/>
<path d="M87.3633 104.141L66.9789 114.84L103.161 136.238L108.196 148.653C108.532 149.482 108.695 150.37 108.677 151.264C108.658 152.158 108.458 153.039 108.087 153.853C107.717 154.667 107.185 155.397 106.523 155.998C105.862 156.6 105.084 157.06 104.239 157.352C103.278 157.683 102.253 157.788 101.245 157.657C100.236 157.526 99.2721 157.164 98.4273 156.599C97.5825 156.033 96.8801 155.28 96.3751 154.397C95.8701 153.515 95.5763 152.528 95.5166 151.514L95.0074 142.861L49.0203 127.689C47.4708 127.178 46.0581 126.321 44.889 125.183C43.7199 124.045 42.8252 122.656 42.2725 121.121C41.4669 118.884 41.4259 116.443 42.1559 114.18C42.8859 111.917 44.3457 109.96 46.3068 108.615L83.2864 83.2521L87.3633 104.141Z" fill="#FFB8B8"/>
<path d="M107.748 106.179C99.2461 102.454 91.5155 106.5 81.7576 109.745L80.2288 82.7426C89.9179 77.5797 99.1558 76.1878 107.748 80.1952L107.748 106.179Z" fill="#4F7F96"/>
<path d="M117.917 69.6249C126.902 69.6249 134.186 62.3433 134.186 53.3609C134.186 44.3785 126.902 37.0968 117.917 37.0968C108.933 37.0968 101.649 44.3785 101.649 53.3609C101.649 62.3433 108.933 69.6249 117.917 69.6249Z" fill="#FFB8B8"/>
<path d="M137.38 51.3088C121.273 52.8859 108.999 50.2523 101.155 42.7538V36.7149H136.013L137.38 51.3088Z" fill="#2F2E41"/>
</g>
<defs>
<clipPath id="clip0_1_29">
<rect width="542" height="377" fill="white"/>
</clipPath>
</defs>
</svg>
